<svg xmlns="http://www.w3.org/2000/svg" width="123" height="24" viewBox="0 0 2135 377" fill="none">
  <g clip-path="url(#a)">
    <path fill="#EB7B30" d="m344.279 312.725 1.726-194.969-76.706-.692.414-45.282 208.921 1.868-.414 45.317-76.74-.692-1.692 194.935-55.509-.485ZM609.4 317.015c-24.441.242-46.569-4.878-66.453-15.36-19.815-10.481-35.453-25.114-46.914-43.933-11.461-18.75-17.295-40.025-17.468-63.825-.241-23.801 5.247-45.179 16.432-64.171 11.116-18.923 26.512-33.798 46.155-44.626 19.677-10.828 41.874-16.293 66.522-16.466 20.782-.173 39.596 3.32 56.442 10.481 16.846 7.196 31.034 17.609 42.564 31.238l-35.349 33.21c-16.398-18.577-36.558-27.813-60.55-27.64-14.844.104-28.066 3.494-39.63 10.136-11.599 6.642-20.575 15.809-26.961 27.536-6.387 11.727-9.528 25.011-9.424 39.887.103 14.875 3.486 28.124 10.114 39.713 6.559 11.623 15.707 20.618 27.41 27.017 11.703 6.4 24.959 9.548 39.803 9.444 23.957-.173 43.979-9.824 60.032-28.989l35.867 32.691c-11.288 14.079-25.338 24.838-42.116 32.276-16.846 7.437-35.66 11.243-56.441 11.416l-.035-.035Z"/>
    <path fill="#161616" d="M938.628 207.526c-7.595-10.274-18.193-17.677-31.794-22.174 10.149-5.154 18.054-12.211 23.75-21.24 2.866-4.532 5.006-9.41 6.49-14.599 1.485-5.189 2.244-10.689 2.313-16.501.276-19.199-7.284-34.49-22.749-45.906-15.431-11.415-37.766-17.33-66.937-17.711l-116.922-1.73-3.487 239.733 123.758 1.868c31.207.45 55.061-4.843 71.528-15.913 8.25-5.535 14.429-12.315 18.641-20.341 4.177-8.026 6.352-17.297 6.49-27.779.241-14.84-3.487-27.398-11.116-37.672l.035-.035Zm-151.375-97.311 55.026.761c13.671.242 24.027 2.733 31.035 7.541 6.835 4.705 10.253 11.658 10.253 20.791v.45c-.104 9.375-3.763 16.397-10.944 21.067-7.111 4.67-17.536 6.919-31.207 6.677l-55.026-.761.863-56.526Zm106.842 128.376c-.172 10.033-4.004 17.401-11.461 22.106-7.456 4.67-18.503 6.918-33.071 6.676l-64.623-.934.863-59.258 64.623.934c29.102.449 43.669 10.447 43.669 29.923v.588-.035ZM1112.23 72.3l-54.71-.415-108.812 238.799 56.752.519 21.61-51.233 111.12 1.038 20.79 51.544 58.13.519-104.88-240.77Zm-66.93 145.708 38.73-91.465 37.18 92.157-75.91-.692ZM1331.06 317.43c-24.37-.069-46.39-5.431-66.07-16.086-19.71-10.689-35.18-25.426-46.4-44.28-11.22-18.888-16.81-40.232-16.74-63.963.1-23.766 5.83-45.006 17.19-63.825 11.32-18.854 26.86-33.556 46.57-44.107 19.78-10.55 41.98-15.809 66.59-15.774 20.75.103 39.46 3.84 56.17 11.139 16.74 7.368 30.79 17.92 42.15 31.687l-35.63 32.795c-16.12-18.784-36.14-28.194-60.1-28.263-14.81-.069-28.03 3.148-39.66 9.582-11.67 6.504-20.79 15.568-27.28 27.156-6.55 11.658-9.87 24.908-9.9 39.748 0 14.841 3.21 28.09 9.66 39.748 6.46 11.693 15.47 20.826 27.1 27.329 11.64 6.573 24.86 9.894 39.67 9.928 23.92.07 44.01-9.374 60.24-28.262l35.45 32.967c-11.46 13.872-25.62 24.423-42.5 31.688-16.91 7.299-35.76 10.897-56.51 10.793ZM1610.13 313.14l-76.84-93.956-32.07 33.66.17 60.642-55.03.173-.76-239.836 55.03-.173.35 112.048 105.63-112.36 61.55-.276-98.8 107.239 105.39 132.597-64.62.242ZM1746.63 267.754l130.25-1.107.34 44.522-187.35 1.625V72.992l180.86-1.556.41 44.556-125.79 1.003.41 52.098 111.13-.969.34 43.173-111.12.934.52 55.523ZM2134.75 187.566c-.35-23.973-6.15-44.902-17.44-62.787-11.32-17.92-27.03-31.688-47.08-41.27-20.13-9.652-43.15-14.287-69.15-13.976l-108.7.968 3.52 240.391 108.7-1.557c26-.415 48.85-5.708 68.63-15.948 19.78-10.205 35.07-24.423 45.91-42.653 10.43-17.608 15.68-37.915 15.68-60.989v-2.214l-.07.035Zm-76.67 55.419c-14.02 13.526-33.01 20.479-56.93 20.825l-50.61.761-2.14-148.683 50.61-.692c23.92-.346 43.12 6.054 57.51 19.2 7.22 6.572 12.67 14.356 16.33 23.35 3.69 8.995 5.63 19.2 5.8 30.616.35 22.831-6.52 41.062-20.61 54.657l.04-.034Z"/>
    <path fill="#EB7B30" d="M249.415 118.552c-3.452-41.063-38.042-55.384-81.884-60.054l.587-56.872-34.004-.588-.586 55.35c-8.941-.139-18.055-.139-27.134-.104l.587-55.73-33.969-.589-.587 56.838c-7.353 0-14.602.034-21.644-.07v-.173L3.9 55.73l-.38 36.98s25.097-.069 24.683.416c13.774.242 18.158 8.441 19.4 15.498l-1.622 155.774c-.656 4.394-3.28 11.381-12.876 11.243.449.415-32.415-.588-32.415-.588l-.656 41.374 45.43.795c8.215.139 16.328.45 24.268.623l-.587 57.495 33.969.588.586-56.907c9.321.346 18.331.588 27.134.727l-.587 56.629 34.003.588.622-57.425c57.167-2.352 97.314-16.328 102.872-70.882 4.454-43.934-15.638-63.929-48.018-72.404 19.815-9.894 32.311-27.675 29.757-57.737l-.069.035Zm-48.813 122.15c-.414 42.965-72.632 36.842-95.692 36.496l.794-76.21c23.025.415 95.347-5.12 94.863 39.714h.035Zm-14.706-107.794c-.414 39.091-60.619 33.521-79.813 33.175l.725-69.117c19.194.311 79.537-4.843 79.123 35.942h-.035Z"/>
  </g>
  <defs>
    <clipPath id="a">
      <path fill="#fff" d="M0 0h2134.78v377H0z"/>
    </clipPath>
  </defs>
</svg>